<svg width="237" height="260" viewBox="0 0 237 260" fill="none" xmlns="http://www.w3.org/2000/svg">
<path d="M230.918 163.883C231.003 163.564 231.026 163.238 230.987 162.911C235.109 157.017 236.756 149.573 233.86 142.811C233.722 142.499 233.538 142.217 233.301 141.973C238.518 134.388 236.358 124.704 229.279 119.106C232.144 114.116 233.171 108.355 230.964 102.231C227.134 91.3463 218.224 80.2245 209.468 72.4763C198.627 62.8819 185.205 56.8465 171.569 51.8788C174.603 39.1925 177.184 26.2616 178.533 13.3751C178.801 12.8264 178.885 12.2481 178.778 11.6475L178.747 11.4177C178.747 11.3435 178.747 11.262 178.747 11.1804C178.809 10.654 178.701 10.1646 178.441 9.69752C178.441 9.65303 178.441 9.61596 178.441 9.57147C178.242 8.33324 176.817 7.57696 175.629 7.51764C170.611 7.27296 166.903 11.1804 163.241 13.9905L150.034 24.1558L135.815 1.75655C135.516 1.27461 135.103 0.918713 134.582 0.674032C134.061 0.436767 133.509 0.347793 132.935 0.421938C132.36 0.496082 131.855 0.711105 131.41 1.07442C130.966 1.43773 130.667 1.8826 130.499 2.41645C127.687 10.6985 124.806 18.9138 120.386 26.4988C114.311 18.81 108.611 10.8616 103.302 2.65371C102.245 1.02993 99.2189 0.629545 98.2843 2.65371C94.5381 10.78 90.4777 18.7581 86.088 26.5804C78.5803 20.1446 70.6435 14.2426 62.2778 8.88192C59.6348 7.1914 57.1603 10.4093 58.3477 12.6411C58.3477 12.7078 58.3477 12.7671 58.3477 12.8413C61.1516 26.1059 63.5112 39.5113 67.0965 52.6054C40.6279 61.9181 11.3861 81.055 3.89369 108.555C1.89418 115.881 2.16997 122.732 6.03876 128.834C-0.135972 134.795 -1.26213 144.368 4.30738 151.226C5.78594 153.095 7.60159 154.577 9.75432 155.675C8.68178 157.781 8.06891 160.005 7.91569 162.348C7.75481 164.683 8.06891 166.967 8.85032 169.184C3.59491 174.893 1.27364 185.392 4.75938 192.273C6.61333 195.951 10.0531 196.477 13.0562 198.138C7.44071 206.457 9.34829 219.81 12.7344 228.485C14.2743 232.534 16.5496 236.145 19.568 239.318C29.4506 249.55 45.5156 253.035 59.1981 255.267C72.7503 257.469 86.5017 258.425 100.215 258.93C118.072 259.582 136.083 259.804 153.857 257.817C174.779 255.482 196.812 250.462 213.98 238.05C218.73 234.691 222.867 230.732 226.391 226.18C232.971 217.512 234.504 206.027 232.826 195.617C232.826 195.528 232.78 195.461 232.765 195.387C234.373 193.437 235.308 191.22 235.576 188.744C235.975 185.4 234.963 182.404 233.454 179.424C230.811 174.196 229.386 169.733 230.918 163.883ZM210.126 220.085C199.853 212.848 188.975 206.576 177.498 201.267C177.054 200.829 176.51 200.585 175.867 200.54C166.888 196.521 157.58 193.452 147.935 191.324C167.317 188.58 186.316 184.258 204.94 178.371C210.9 176.473 217.136 174.315 222.445 170.919C221.074 187.95 216.968 204.336 210.111 220.085H210.126ZM30.1937 209.86C29.8873 208.592 29.5655 207.324 29.2361 206.071C29.2285 205.686 29.1365 205.33 28.9603 204.989C27.0527 197.708 24.854 190.516 22.3566 183.405C23.636 184.05 24.946 184.636 26.2943 185.17C40.4824 190.857 56.4095 193.103 71.9689 194.134C67.9392 195.024 63.9326 196.01 59.9565 197.115C49.4074 200.029 39.0574 203.662 30.1937 209.86ZM46.8563 180.313C61.933 182.434 76.282 179.498 84.8776 166.456C85.0002 166.263 85.1074 166.055 85.184 165.84C85.4292 165.677 85.6743 165.529 85.9118 165.358C91.0523 161.562 95.3348 158.73 102.115 159.805C108.42 160.813 113.859 164.276 119.291 167.293C122.891 169.369 126.668 171.082 130.621 172.424C140.734 176.984 151.742 180.009 162.966 177.807C167.853 176.88 172.381 175.093 176.541 172.454C180.708 169.807 184.194 166.507 187.021 162.548C194.123 165.603 201.63 168.116 208.755 163.475C213.137 160.605 215.121 155.756 218.799 152.249C221.748 149.432 225.617 148.268 228.911 146.14C233.73 161.517 213.796 169.74 201.63 173.514C185.519 178.519 169.11 182.352 152.409 185.014C136.382 187.609 120.241 189.129 103.992 189.581C103.555 189.396 103.095 189.329 102.62 189.381C101.693 189.47 100.766 189.574 99.8088 189.663C82.7938 189.863 65.8018 188.669 49.3921 185.585C40.6739 183.961 31.0901 182.056 23.3831 177.585C17.0475 173.9 11.026 165.744 14.4811 158.693C19.2003 171.876 33.1432 178.393 46.8563 180.313ZM20.2651 157.551C23.0997 157.365 25.9036 156.928 28.6539 156.238C34.4685 154.874 40.2066 153.399 45.033 157.766C48.7256 161.11 51.3839 164.891 56.2639 166.76C61.8258 168.88 68.4219 170.126 74.5966 169.466C67.0965 175.509 56.8998 176.302 46.7184 174.686C35.7173 172.936 24.4021 167.938 20.2651 157.551ZM147.874 172.313C148.326 172.12 148.77 171.905 149.214 171.668C153.412 169.414 156.147 165.573 159.61 162.496C165.432 157.313 172.442 156.624 179.659 159.419C180.325 159.686 180.984 159.968 181.658 160.242C176.84 166.678 169.531 170.889 161.433 172.439C156.906 173.255 152.386 173.203 147.874 172.298V172.313ZM63.2737 201.986C76.1671 198.509 89.275 196.158 102.605 194.942C102.758 194.927 102.919 194.898 103.065 194.861C110.48 194.742 117.881 194.386 125.281 193.808C125.718 194.067 126.201 194.208 126.714 194.223C141.423 194.764 155.404 198.219 168.658 203.558C164.015 205.041 159.342 205.1 154.654 203.743C149.161 202.238 143.882 199.917 138.029 200.792C132.038 201.689 129.342 206.346 124.393 209.037C118.448 212.292 111.752 211.039 106.413 207.443C102.421 204.766 98.4758 201.319 93.3583 201.081C88.5165 200.852 84.801 203.454 81.1467 206.153C79.1932 207.584 77.1017 209.245 74.6579 209.779C70.4214 210.705 66.1006 208.34 62.3697 206.776C60.0408 205.804 57.6582 204.989 55.2067 204.344C57.8651 203.499 60.5694 202.735 63.2737 201.986ZM227.249 179.98C228.52 182.345 230.022 184.703 229.922 187.431C229.892 188.21 229.738 188.973 229.47 189.707C229.202 190.449 228.835 191.138 228.36 191.769C227.877 192.399 227.318 192.955 226.666 193.43C226.023 193.897 225.318 194.275 224.56 194.542C225.678 189.752 226.575 184.903 227.249 179.98ZM89.4359 32.4675C93.6647 25.0753 97.5948 17.5495 101.234 9.87546C106.696 17.9721 112.518 25.8315 118.701 33.4537C119.911 34.9514 122.347 34.2322 123.259 32.9124C128.047 25.7277 131.272 17.8313 134.115 9.7939L146.755 29.7167C147.82 31.385 149.85 31.3998 151.313 30.258L162.981 21.3087C165.425 19.4328 169.156 15.4067 172.68 13.8052C171.048 29.257 167.493 44.835 163.647 59.8346C162.736 63.3713 161.487 67.0489 158.147 69.1324C154.807 71.2085 150.463 71.9128 146.74 72.7952C138.244 74.7897 129.618 75.8203 120.869 75.8944C112.411 75.9834 104.053 75.1678 95.7868 73.4476C91.8414 72.6691 87.9726 71.6459 84.1651 70.3854C78.9097 68.5689 77.232 65.4696 75.6002 60.5834C70.9423 46.5848 68.2533 32.0894 65.3269 17.683C72.1681 22.4134 78.6952 27.5295 84.8853 33.0385C85.207 33.335 85.5824 33.5501 86.0038 33.6909C86.4251 33.8244 86.8618 33.8615 87.3061 33.8096C87.7504 33.7503 88.1565 33.6094 88.5319 33.3721C88.8996 33.1348 89.206 32.8383 89.4359 32.4675ZM24.1646 85.8744C36.491 73.3587 51.9585 63.9348 68.7283 58.018C68.7973 58.233 68.8509 58.4555 68.9198 58.6631C70.6589 64.261 72.2907 70.4818 77.7759 73.7368C83.491 77.1104 91.1519 78.3338 97.6484 79.4979C112.258 82.1226 126.86 82.1449 141.477 79.5795C147.881 78.4525 155.412 77.2587 161.058 73.9592C165.747 71.2159 167.968 66.263 169.225 61.3175C169.554 60.0051 169.883 58.6853 170.213 57.3729C181.206 61.3768 192.123 66.1369 201.416 73.1956C209.72 79.5201 215.895 87.4908 221.296 96.1658C225.441 102.861 228.214 109.171 224.184 116.6C220.584 123.244 213.559 127.203 206.595 129.917C192.705 135.359 177.889 138.658 163.065 140.608C145.575 142.9 127.871 143.315 110.251 143.211C88.7923 142.596 67.2651 141.431 45.937 139.081C31.9634 137.554 7.87738 135.396 8.29874 116.926C8.57453 104.878 15.8831 94.2676 24.1646 85.8744ZM8.17616 146.837C5.20371 142.306 6.32987 137.027 9.70069 133.268C15.3162 138.755 22.8086 141.357 30.5768 142.64C46.1515 145.205 62.0097 146.325 77.7759 147.296C88.5932 147.956 99.4181 148.498 110.258 148.809C144.166 149.009 180.54 147.586 211.911 133.765C217.366 131.4 222.062 128.033 225.992 123.681C229.501 126.543 231.37 130.97 230.122 135.441C228.643 140.772 224.468 142.447 219.879 144.753C216.447 146.473 213.98 148.883 211.689 151.849C208.694 155.756 206.074 160.153 200.451 160.428C190.583 160.887 182.708 152.605 172.864 152.071C163.54 151.567 157.442 156.654 151.39 162.704C145.414 168.665 138.749 168.984 132.046 166.9L131.809 166.789C131.525 166.663 131.234 166.574 130.928 166.53C127.909 165.425 125.006 164.068 122.232 162.474C114.594 158.225 106.665 153.488 97.4799 153.999C93.6111 154.192 90.0947 155.378 86.9461 157.551C82.5257 160.531 79.2774 163.905 73.5164 164.024C68.6747 164.075 63.9555 163.364 59.359 161.896C54.1955 160.205 51.8129 155.816 47.7909 152.687C40.0993 146.674 31.3888 150.299 22.7779 151.812C17.1241 152.776 11.4704 151.827 8.17616 146.837ZM11.7998 174.893C12.5735 175.946 13.4316 176.932 14.3739 177.844C14.3815 178.148 14.4352 178.452 14.5424 178.741C16.8177 184.784 18.8785 190.886 20.7248 197.055C20.4873 196.692 20.2268 196.351 19.9357 196.025C17.737 193.682 14.688 193.474 12.0679 191.858C7.03468 188.773 8.6971 180.061 11.7998 174.893ZM164.107 250.818C148.31 253.465 132.291 253.902 116.295 253.725C101.801 253.569 87.2831 253.035 72.8805 251.5C57.9723 249.913 40.49 247.771 27.9338 239.036C24.3254 236.545 21.5139 233.386 19.5067 229.575C18.0971 226.788 17.1088 223.866 16.5343 220.819C15.4694 215.658 14.2819 207.591 17.0935 202.394C17.7217 203.647 18.2886 204.952 19.2999 205.997C20.6022 207.317 22.1574 208.236 23.9654 208.763C24.5246 211.017 25.0915 213.278 25.5972 215.547C26.1028 217.816 28.9067 218.075 30.4465 216.785C34.7673 213.256 39.5248 210.394 44.7112 208.214L44.8721 208.236C52.2343 208.718 58.1562 211.432 64.9208 213.938C70.1686 215.888 75.3627 216.274 80.3806 213.523C85.0078 211.002 89.2443 205.189 95.2122 207.161C100.858 209.022 104.651 214.064 110.526 215.732C113.039 216.429 115.606 216.689 118.21 216.504C120.823 216.326 123.313 215.71 125.703 214.672C131.855 211.966 135.011 205.567 142.511 206.353C148.778 207.006 154.37 210.223 160.782 210.409C166.137 210.527 171.117 209.274 175.729 206.65C187.734 212.181 199.118 219.165 209.858 226.817C211.03 227.64 213.229 227.084 213.834 225.809C217.588 217.638 220.66 209.237 223.028 200.599C224.59 200.362 226.084 199.932 227.524 199.302C231.11 232.334 191.618 246.199 164.107 250.818Z" fill="#4C2B15"/>
</svg>
